<?xml version="1.0" standalone="no"?>
<!DOCTYPE svg PUBLIC "-//W3C//DTD SVG 20010904//EN"
 "http://www.w3.org/TR/2001/REC-SVG-20010904/DTD/svg10.dtd">
<svg version="1.0" xmlns="http://www.w3.org/2000/svg"
 width="960.000000pt" height="960.000000pt" viewBox="0 0 960.000000 960.000000"
 preserveAspectRatio="xMidYMid meet">
<metadata>
Created by potrace 1.11, written by Peter Selinger 2001-2013
</metadata>
<g transform="translate(0.000000,960.000000) scale(0.100000,-0.100000)"
fill="#000000" stroke="none">
<path d="M4340 9481 l0 -120 66 30 c55 25 137 57 194 75 12 4 12 6 1 14 -8 4
-11 15 -8 23 3 9 1 18 -6 21 -7 2 -1 5 13 6 14 1 34 4 45 6 77 17 215 24 303
15 119 -13 232 -40 239 -58 3 -7 14 -13 25 -13 11 0 16 -4 13 -11 -4 -6 -14
-8 -23 -4 -8 3 -19 0 -24 -7 -12 -19 -10 -30 5 -25 6 2 25 -5 40 -16 16 -10
31 -16 34 -13 4 4 13 -6 20 -21 13 -27 13 -27 8 -3 -2 14 -5 69 -5 123 l0 97
-470 0 -470 0 0 -119z"/>
<path d="M4611 9433 c-61 -6 -115 -14 -120 -18 -21 -12 -11 -25 20 -25 113 0
175 -166 105 -284 -18 -31 -46 -59 -77 -79 -45 -28 -68 -56 -34 -44 8 4 63 13
122 22 100 16 363 22 383 10 9 -5 20 28 20 64 0 19 -3 21 -15 11 -47 -39 -88
50 -75 166 4 38 11 77 15 86 10 25 38 32 52 12 11 -15 13 -12 13 28 l0 46 -62
6 c-114 12 -237 11 -347 -1z m307 -65 c14 -14 16 -48 3 -48 -5 0 -11 6 -14 13
-10 29 -22 -11 -25 -88 -4 -89 7 -128 34 -118 12 4 15 1 12 -13 -9 -48 -67
-16 -68 38 0 15 -4 30 -10 33 -6 4 -10 -6 -10 -22 0 -16 -7 -39 -16 -51 -39
-56 -74 -1 -74 117 0 87 11 128 36 138 23 9 54 -31 54 -69 0 -39 16 -27 23 18
6 35 22 64 36 64 4 0 12 -5 19 -12z m-202 -29 c15 -17 18 -36 18 -108 0 -95
-19 -145 -52 -139 -15 3 -17 21 -20 136 -2 123 -1 132 16 132 10 0 27 -9 38
-21z"/>
<path d="M4784 9339 c-13 -22 -17 -162 -4 -194 11 -29 12 -30 26 -10 12 15 15
41 12 107 -3 85 -17 124 -34 97z"/>
<path d="M4674 9326 c-3 -7 -3 -47 0 -87 3 -41 5 -87 6 -104 0 -28 1 -28 18
-12 28 29 21 217 -9 217 -5 0 -12 -6 -15 -14z"/>
<path d="M4468 9369 c-30 -17 -20 -25 30 -22 26 1 49 2 52 2 2 1 0 5 -5 10
-17 15 -59 20 -77 10z"/>
<path d="M4418 9318 c-21 -38 -37 -98 -27 -104 5 -3 9 3 9 12 0 10 10 37 21
61 22 46 20 72 -3 31z"/>
<path d="M4581 9309 c12 -17 24 -51 27 -75 2 -24 9 -44 13 -44 22 0 -2 105
-30 131 -30 28 -35 23 -10 -12z"/>
<path d="M4977 9323 c-14 -23 -18 -119 -7 -163 15 -62 30 -65 30 -5 0 25 5 45
10 45 6 0 10 26 10 59 0 44 -4 60 -16 65 -20 8 -22 8 -27 -1z"/>
<path d="M4441 9272 c-6 -12 -11 -27 -11 -34 1 -7 8 0 16 15 9 16 13 31 11 34
-3 2 -10 -4 -16 -15z"/>
<path d="M5227 9203 c-6 -30 7 -53 29 -53 7 0 18 -8 23 -17 9 -16 10 -15 11 5
0 13 -5 33 -12 45 -11 21 -11 21 -19 2 -8 -20 -8 -20 -8 0 -1 11 -5 26 -10 33
-6 10 -10 6 -14 -15z"/>
<path d="M4424 9188 c3 -13 6 -32 6 -42 0 -12 3 -16 9 -10 11 12 2 74 -11 74
-6 0 -8 -10 -4 -22z"/>
<path d="M4381 9174 c0 -11 3 -14 6 -6 3 7 2 16 -1 19 -3 4 -6 -2 -5 -13z"/>
<path d="M5121 9134 c0 -11 3 -14 6 -6 3 7 2 16 -1 19 -3 4 -6 -2 -5 -13z"/>
<path d="M4385 9103 c3 -21 13 -48 20 -60 17 -26 53 -39 68 -24 7 7 5 12 -9
16 -40 13 -49 23 -58 63 -12 52 -31 56 -21 5z"/>
<path d="M4575 9104 c-15 -19 -25 -37 -22 -40 6 -6 57 54 57 67 0 15 -7 10
-35 -27z"/>
<path d="M4461 9118 c0 -9 -4 -25 -7 -35 -5 -14 -4 -15 5 -7 7 7 11 22 8 35
-2 13 -5 16 -6 7z"/>
<path d="M4505 9090 c3 -5 8 -10 11 -10 2 0 4 5 4 10 0 6 -5 10 -11 10 -5 0
-7 -4 -4 -10z"/>
<path d="M5260 9080 c6 -11 16 -20 22 -20 6 0 3 9 -7 20 -10 11 -20 20 -22 20
-2 0 1 -9 7 -20z"/>
<path d="M4525 9050 c-3 -5 -1 -10 4 -10 6 0 11 5 11 10 0 6 -2 10 -4 10 -3 0
-8 -4 -11 -10z"/>
<path d="M4505 8958 c-91 -21 -114 -29 -139 -49 -14 -11 -26 -28 -26 -37 0
-15 -2 -15 -10 -2 -8 12 -10 9 -10 -13 0 -15 -7 -43 -14 -62 -9 -21 -11 -35
-5 -35 6 0 8 -4 4 -9 -3 -6 4 -15 15 -21 19 -10 20 -20 20 -253 0 -190 -4
-254 -16 -297 -9 -30 -21 -75 -27 -100 -13 -48 -68 -106 -157 -165 -57 -39
-203 -183 -261 -260 -114 -151 -184 -300 -251 -535 -16 -56 -15 -618 2 -1365
6 -286 13 -630 15 -765 2 -135 6 -387 9 -560 3 -173 8 -594 11 -935 4 -507 11
-1228 19 -1882 1 -59 -3 -99 -8 -95 -6 3 -6 -3 -1 -14 5 -10 10 -95 11 -189 2
-93 6 -188 9 -210 3 -22 7 -65 9 -95 2 -30 6 -77 10 -105 7 -55 14 -114 15
-132 2 -22 95 -126 153 -168 120 -89 325 -173 523 -214 526 -110 1147 11 1410
274 48 48 129 189 121 210 -8 21 3 45 21 45 8 0 13 8 12 17 -1 10 0 36 1 58 1
31 3 35 9 20 7 -17 9 -15 14 15 4 19 12 62 18 95 7 39 12 382 14 995 2 514 9
1797 15 2850 11 2033 11 2041 -36 2215 -62 231 -150 393 -303 556 -110 118
-221 189 -376 239 -106 35 -122 54 -56 65 69 12 72 17 49 120 -17 78 -20 132
-21 405 -1 198 -6 319 -12 326 -6 6 -21 17 -34 23 -19 11 -25 11 -32 0 -6 -10
-20 -10 -76 0 -37 7 -115 15 -173 18 l-105 6 3 -82 c3 -58 1 -81 -8 -81 -7 0
-11 17 -10 48 3 89 -4 118 -10 42 l-6 -75 -2 73 c-1 50 -6 74 -15 78 -8 3 -65
1 -128 -4 -99 -7 -116 -6 -129 8 -12 13 -23 15 -55 8z m363 -333 c-3 -3 -9 2
-12 12 -6 14 -5 15 5 6 7 -7 10 -15 7 -18z m-8 -265 c-6 -12 -21 -20 -35 -20
-20 0 -25 5 -25 26 0 22 2 25 15 14 12 -10 15 -9 15 5 0 14 3 15 15 5 13 -11
15 -6 15 31 -1 43 -1 44 -15 19 -14 -25 -14 -24 -15 17 0 34 3 41 15 37 11 -5
16 2 17 22 1 16 4 -8 5 -53 2 -47 -1 -92 -7 -103z m68 -116 c22 -15 29 -39 14
-48 -12 -7 -84 43 -77 55 9 14 38 11 63 -7z m172 -694 c0 -18 -122 -165 -138
-165 -31 0 -24 35 22 100 55 76 84 99 103 83 7 -6 13 -14 13 -18z m-255 -390
c0 -9 -11 -16 -27 -18 -20 -2 -28 1 -28 12 0 8 6 17 13 19 21 9 42 2 42 -13z
m71 10 c13 -13 6 -70 -9 -70 -20 0 -47 33 -47 57 0 17 6 23 23 23 13 0 28 -5
33 -10z m72 -76 c0 -36 -4 -44 -19 -44 -14 0 -19 7 -19 29 0 16 -3 43 -6 61
l-7 32 26 -17 c22 -14 26 -24 25 -61z m-58 -23 c0 -5 -7 -11 -15 -15 -9 -3
-15 0 -15 9 0 8 7 15 15 15 8 0 15 -4 15 -9z m59 -58 c-1 -10 1 -26 6 -36 9
-22 3 -29 -18 -22 -14 6 -29 60 -19 70 12 12 33 3 31 -12z m-459 -826 c283 -1
720 0 970 3 l455 5 0 -2220 0 -2219 -50 -38 c-113 -86 -313 -166 -530 -213
-192 -41 -288 -50 -545 -49 -317 0 -520 29 -740 106 -159 56 -332 155 -344
196 -2 9 -7 487 -10 1062 -7 1160 -13 1954 -22 2796 -4 309 -3 567 1 574 5 8
46 10 154 5 80 -3 378 -7 661 -8z"/>
<path d="M4905 6070 c-26 -7 -24 -8 21 -9 28 0 80 -4 115 -7 44 -5 61 -3 54 4
-13 14 -152 23 -190 12z"/>
<path d="M4725 6060 c-3 -6 1 -7 9 -4 18 7 21 14 7 14 -6 0 -13 -4 -16 -10z"/>
<path d="M4842 6058 c5 -15 28 -23 28 -10 0 5 -7 13 -16 16 -10 4 -14 1 -12
-6z"/>
<path d="M4190 6023 c0 -6 7 -26 15 -44 l16 -34 -7 35 c-6 34 -24 66 -24 43z"/>
<path d="M4915 5978 c-25 -28 -53 -64 -60 -79 -8 -15 -35 -39 -60 -53 -25 -15
-45 -32 -45 -38 0 -6 11 -1 24 11 46 43 52 17 7 -32 -40 -43 -72 -60 -131 -70
-20 -4 -19 -5 8 -6 51 -2 120 36 162 90 21 27 40 54 43 61 4 10 7 10 15 0 7
-10 16 -6 41 18 35 36 37 40 16 40 -8 0 -20 -9 -27 -20 -7 -11 -16 -20 -20
-20 -17 0 -6 25 38 86 25 35 43 64 40 64 -2 0 -25 -23 -51 -52z"/>
<path d="M4322 5980 c0 -19 2 -27 5 -17 2 9 2 25 0 35 -3 9 -5 1 -5 -18z"/>
<path d="M4362 5975 c0 -16 2 -22 5 -12 2 9 2 23 0 30 -3 6 -5 -1 -5 -18z"/>
<path d="M4420 5993 c0 -5 13 -17 28 -27 l27 -19 -24 26 c-26 28 -31 32 -31
20z"/>
<path d="M4588 5994 c-4 -5 0 -18 8 -29 15 -20 17 -12 5 19 -4 11 -10 15 -13
10z"/>
<path d="M4768 5918 c6 -6 18 -8 28 -6 14 3 12 5 -9 10 -19 3 -25 2 -19 -4z"/>
<path d="M4718 5910 c23 -27 14 -70 -23 -107 -39 -39 -65 -40 -77 -3 l-7 25 2
-24 c3 -34 28 -47 63 -32 33 13 74 68 74 98 0 11 -10 28 -22 39 -13 10 -17 12
-10 4z"/>
<path d="M4557 5853 c-9 -9 -9 -75 1 -90 4 -6 7 13 7 43 0 30 0 54 -1 54 0 0
-4 -3 -7 -7z"/>
<path d="M4900 5830 c-11 -11 -20 -24 -20 -30 0 -19 16 -10 33 20 21 35 16 39
-13 10z"/>
<path d="M4970 5830 c-22 -22 -25 -36 -10 -45 6 -3 10 1 10 9 0 8 10 24 22 36
12 11 16 20 10 20 -7 0 -21 -9 -32 -20z"/>
<path d="M5012 5820 c-12 -16 -18 -31 -13 -34 5 -3 18 10 30 29 25 42 15 45
-17 5z"/>
<path d="M5610 5600 c-9 -6 -10 -10 -3 -10 6 0 15 5 18 10 8 12 4 12 -15 0z"/>
<path d="M5169 5571 c-79 -42 -90 -49 -109 -74 -13 -17 -17 -28 -10 -32 8 -5
8 -11 0 -20 -8 -10 -8 -16 2 -22 7 -4 18 -17 24 -28 6 -11 14 -18 19 -15 4 3
13 -8 21 -23 8 -15 18 -26 22 -24 49 22 65 36 79 64 10 21 25 36 42 40 31 7
41 20 41 54 0 26 -23 52 -71 83 -23 15 -28 15 -60 -3z"/>
<path d="M4811 5564 c0 -11 3 -14 6 -6 3 7 2 16 -1 19 -3 4 -6 -2 -5 -13z"/>
<path d="M4765 5550 c-3 -5 -1 -10 4 -10 6 0 11 5 11 10 0 6 -2 10 -4 10 -3 0
-8 -4 -11 -10z"/>
<path d="M4604 5394 c-42 -25 -76 -29 -157 -18 -70 9 -144 -31 -214 -115 -29
-36 -53 -70 -53 -77 0 -6 -7 -17 -14 -24 -8 -6 -20 -37 -27 -68 -13 -65 -26
-78 -52 -54 -21 19 -57 93 -57 116 0 24 -15 19 -30 -9 -10 -18 -11 -48 -6
-115 10 -139 23 -190 56 -232 36 -45 53 -85 40 -93 -17 -10 -11 -51 10 -70 11
-10 20 -26 20 -37 0 -12 7 -18 23 -18 28 0 53 -25 62 -63 4 -15 11 -30 16 -33
5 -3 9 -16 9 -30 0 -46 27 -83 65 -90 20 -3 34 -9 32 -13 -49 -90 -113 -270
-156 -436 -27 -103 -38 -206 -46 -420 -7 -175 40 -491 89 -609 9 -22 15 -41
13 -43 -8 -7 -26 24 -62 107 -85 197 -108 250 -112 247 -11 -11 149 -358 253
-547 121 -220 281 -415 412 -503 77 -52 173 -101 217 -111 28 -7 -59 52 -187
127 -63 36 -225 196 -233 230 -11 42 29 214 68 297 54 115 73 168 91 255 10
44 22 90 27 103 5 13 9 31 9 40 -1 13 -5 11 -16 -8 l-15 -25 5 35 c5 28 4 31
-5 17 -6 -10 -8 -28 -5 -40 2 -12 1 -38 -4 -57 -5 -21 -9 -27 -10 -15 -1 11
-8 -7 -16 -40 -27 -113 -43 -152 -69 -163 -20 -9 -25 -19 -25 -51 0 -21 -11
-68 -25 -105 -14 -36 -28 -91 -31 -121 -4 -30 -10 -55 -14 -55 -12 0 -29 73
-45 184 -31 222 29 527 137 699 31 48 34 72 6 40 -52 -59 -140 -275 -155 -381
-3 -24 -11 -46 -17 -48 -20 -8 -5 -308 20 -393 5 -17 3 -22 -6 -19 -17 5 -101
171 -150 296 -78 201 -112 378 -112 594 0 195 11 308 28 308 8 0 14 -6 14 -14
0 -21 19 -30 34 -16 17 13 78 -20 82 -44 1 -8 12 -29 24 -46 19 -27 27 -30 73
-29 60 1 97 12 79 23 -7 4 -12 14 -12 22 0 8 4 12 10 9 6 -3 7 1 4 9 -3 9 -1
16 5 16 6 0 10 3 10 8 -5 27 3 51 14 46 7 -2 23 5 35 16 18 17 25 19 42 8 15
-10 25 -10 38 -2 9 6 35 10 57 8 22 -1 46 -3 53 -3 10 -1 10 -5 0 -23 -7 -13
-19 -27 -25 -31 -16 -10 -17 -33 -2 -43 6 -3 26 2 45 12 31 17 32 19 17 36
-17 19 -14 28 9 32 8 1 25 12 38 24 13 12 32 22 41 22 10 0 21 4 24 10 8 14
-22 57 -45 63 -12 3 -20 14 -20 26 0 17 -6 21 -30 21 -16 0 -30 -4 -30 -8 0
-5 -12 -14 -26 -20 -14 -7 -23 -16 -20 -20 2 -4 -6 -9 -19 -10 -16 -1 -24 5
-28 19 -4 15 -11 19 -25 14 -17 -5 -19 -2 -15 15 3 11 10 20 17 20 6 0 -4 8
-21 16 -38 19 -43 34 -11 34 20 0 20 1 5 18 -15 16 -15 20 -2 39 10 15 22 19
36 16 14 -4 27 0 35 12 8 10 31 19 58 22 41 5 46 3 46 -14 0 -20 34 -63 50
-63 5 0 15 7 22 16 7 8 20 23 30 31 11 11 15 26 11 47 -4 28 -2 32 29 44 50
18 58 15 58 -16 0 -30 16 -52 36 -52 7 0 28 14 46 30 18 17 37 30 43 30 17 0
68 57 61 68 -3 5 3 21 14 35 17 21 17 26 5 31 -15 6 -72 -10 -92 -27 -12 -9
-16 -4 -28 39 -2 7 27 34 65 60 38 27 74 59 79 72 9 19 14 21 30 11 26 -17 53
-4 50 23 -3 29 38 98 55 92 7 -3 21 4 31 16 10 11 26 20 36 20 9 0 19 6 22 13
3 9 9 9 26 -1 18 -10 21 -10 21 4 0 11 5 14 17 10 10 -4 14 -4 10 0 -4 4 -2
13 4 21 9 10 7 13 -8 13 -10 0 -24 -5 -29 -10 -7 -7 -19 -7 -35 -1 -16 7 -18
10 -7 10 9 1 20 11 23 22 8 24 54 79 67 79 4 0 8 -12 8 -26 0 -16 5 -24 13
-21 6 2 10 13 9 23 -9 45 -2 80 18 93 11 7 20 19 20 26 0 7 7 15 15 19 10 3
15 19 15 46 0 25 -4 39 -10 35 -5 -3 -10 -2 -10 3 0 13 -39 22 -46 11 -3 -5 0
-9 5 -9 6 0 11 -5 11 -12 0 -7 -10 -3 -22 9 -17 17 -19 25 -9 36 9 12 6 23
-15 55 -24 37 -29 40 -65 36 -21 -2 -39 1 -39 6 0 5 -8 6 -17 3 -9 -4 -12 -8
-6 -10 6 -2 9 -12 6 -22 -4 -16 -9 -17 -33 -8 -24 9 -32 8 -48 -6 -10 -9 -24
-17 -32 -17 -7 0 -18 -8 -25 -17 -11 -15 -17 -15 -39 -5 -17 7 -24 17 -20 24
5 8 2 9 -12 3 -10 -4 -26 -9 -34 -10 -8 -1 -24 -6 -34 -10 -13 -6 -21 -4 -24
3 -2 6 -9 9 -16 6 -7 -3 -20 6 -29 19 -12 19 -14 36 -7 83 4 33 6 61 4 63 -2
2 -13 -8 -25 -22 -11 -15 -27 -27 -35 -27 -8 0 -17 -7 -20 -15 -9 -22 -27 -19
-51 8 -17 21 -18 26 -5 45 20 31 17 83 -7 123 -11 19 -21 41 -21 50 0 9 -10
24 -22 35 -21 19 -21 19 -15 -5 7 -30 -36 -70 -76 -71 -34 0 -67 -16 -87 -41
-10 -13 -22 -17 -37 -13 -24 6 -31 30 -12 36 16 5 24 85 9 103 -7 8 -10 25 -6
40 8 31 -5 31 -60 -1z m-79 -154 c11 -9 28 -20 38 -23 22 -8 33 -35 19 -49
-18 -18 -59 -1 -66 27 -4 14 -18 31 -31 37 -25 11 -30 20 -19 31 8 8 35 -2 59
-23z m1025 -260 c0 -5 -5 -10 -11 -10 -5 0 -7 5 -4 10 3 6 8 10 11 10 2 0 4
-4 4 -10z m-520 -155 c0 -8 -4 -15 -10 -15 -5 0 -10 7 -10 15 0 8 5 15 10 15
6 0 10 -7 10 -15z m80 -389 c0 -3 -4 -8 -10 -11 -5 -3 -10 -1 -10 4 0 6 5 11
10 11 6 0 10 -2 10 -4z m-692 -54 c2 -7 -5 -16 -17 -19 -26 -7 -26 -10 0 -52
14 -23 21 -53 22 -85 1 -53 -8 -135 -14 -139 -2 -1 -13 -7 -24 -13 -11 -6 -22
-25 -26 -43 -7 -36 -66 -101 -91 -101 -9 0 -28 -21 -43 -46 -15 -25 -29 -43
-31 -41 -8 8 46 216 81 313 56 153 102 246 121 242 10 -2 19 -9 22 -16z m172
-472 c0 -5 -4 -10 -10 -10 -5 0 -10 5 -10 10 0 6 5 10 10 10 6 0 10 -4 10 -10z
m65 -81 c11 -17 -1 -21 -15 -4 -8 9 -8 15 -2 15 6 0 14 -5 17 -11z"/>
<path d="M5477 5403 c-2 -5 -7 -20 -11 -35 -6 -26 -4 -28 24 -28 16 0 30 -4
30 -10 0 -5 5 -10 10 -10 18 0 10 34 -15 63 -25 29 -31 32 -38 20z"/>
<path d="M5405 5284 c-8 -13 -15 -27 -15 -31 0 -4 -12 -20 -27 -35 -26 -27
-26 -28 -7 -43 13 -9 31 -12 54 -8 40 7 50 17 50 55 0 15 5 30 10 33 15 9 -5
41 -29 48 -14 3 -25 -3 -36 -19z m42 -26 c-3 -8 -6 -5 -6 6 -1 11 2 17 5 13 3
-3 4 -12 1 -19z"/>
<path d="M5210 5229 c0 -5 5 -7 10 -4 6 3 10 8 10 11 0 2 -4 4 -10 4 -5 0 -10
-5 -10 -11z"/>
<path d="M5510 5230 c0 -5 5 -10 10 -10 6 0 10 5 10 10 0 6 -4 10 -10 10 -5 0
-10 -4 -10 -10z"/>
<path d="M4979 5214 c-10 -13 -10 -17 1 -24 17 -10 30 -4 30 15 0 22 -16 26
-31 9z"/>
<path d="M5255 5170 c-10 -16 26 -53 39 -40 7 7 4 17 -11 31 -14 15 -23 18
-28 9z"/>
<path d="M5554 5165 c-5 -11 -3 -20 4 -23 7 -2 12 -13 12 -25 0 -16 3 -18 11
-10 9 9 8 20 -4 45 -14 29 -17 30 -23 13z"/>
<path d="M5320 5145 c0 -8 7 -15 15 -15 8 0 15 7 15 15 0 8 -7 15 -15 15 -8 0
-15 -7 -15 -15z"/>
<path d="M5370 5067 c0 -8 10 -22 22 -33 20 -18 21 -18 15 -1 -4 10 -7 25 -7
33 0 8 -7 14 -15 14 -8 0 -15 -6 -15 -13z"/>
<path d="M5602 5001 c-18 -11 -12 -41 10 -55 24 -15 42 5 34 38 -7 27 -21 32
-44 17z"/>
<path d="M5610 4501 c0 -11 4 -22 8 -25 4 -2 8 4 9 14 1 11 -2 22 -8 25 -5 4
-9 -3 -9 -14z"/>
<path d="M5524 4427 c-3 -8 -11 -14 -19 -14 -28 0 -85 -37 -85 -56 0 -10 -11
-29 -25 -43 -14 -14 -25 -30 -26 -37 0 -7 -4 -3 -9 8 -8 18 -9 18 -9 -5 -1
-14 2 -43 6 -65 l7 -40 6 35 c5 36 30 49 37 20 4 -13 3 -13 -6 0 -9 13 -11 13
-11 -1 0 -26 10 -28 47 -12 20 8 46 12 58 9 29 -7 46 13 38 44 -5 17 -3 21 7
15 10 -6 12 0 8 24 -3 19 1 36 9 42 7 6 13 23 13 38 0 15 5 32 12 39 9 9 5 12
-20 12 -18 0 -35 -6 -38 -13z m0 -122 c-4 -8 -10 -15 -15 -15 -5 0 -9 7 -9 15
0 8 7 15 15 15 9 0 12 -6 9 -15z"/>
<path d="M3950 4390 c0 -5 5 -10 10 -10 6 0 10 5 10 10 0 6 -4 10 -10 10 -5 0
-10 -4 -10 -10z"/>
<path d="M5570 4350 c-8 -5 -12 -12 -9 -15 8 -8 39 5 39 16 0 11 -11 11 -30
-1z"/>
<path d="M5564 4305 c8 -22 -14 -78 -42 -102 -30 -27 -17 -31 15 -4 31 26 56
121 32 121 -6 0 -9 -7 -5 -15z"/>
<path d="M3814 4138 c3 -13 6 -33 6 -45 0 -33 16 -28 23 7 8 37 0 60 -20 60
-11 0 -14 -6 -9 -22z"/>
<path d="M3892 4098 c2 -6 10 -14 16 -16 7 -2 10 2 6 12 -7 18 -28 22 -22 4z"/>
<path d="M4095 4010 c-7 -12 2 -30 16 -30 5 0 9 9 9 20 0 21 -15 27 -25 10z"/>
<path d="M3959 3980 c3 -17 11 -31 16 -30 11 0 11 5 0 38 -11 33 -23 27 -16
-8z"/>
<path d="M5630 3995 c0 -8 7 -15 15 -15 8 0 15 7 15 15 0 8 -7 15 -15 15 -8 0
-15 -7 -15 -15z"/>
<path d="M4684 3965 c-18 -45 -18 -48 10 -74 l24 -22 21 22 c23 25 26 45 11
83 -14 39 -48 34 -66 -9z"/>
<path d="M5380 3980 c0 -11 7 -20 15 -20 17 0 18 2 9 24 -9 23 -24 20 -24 -4z"/>
<path d="M3997 3943 c-15 -15 -6 -43 13 -43 11 0 20 6 20 14 0 17 -24 38 -33
29z"/>
<path d="M4099 3928 c-6 -15 -5 -68 2 -68 5 0 9 7 9 15 0 8 5 15 10 15 6 0 10
9 10 20 0 11 -7 20 -15 20 -8 0 -15 -1 -16 -2z"/>
<path d="M5455 3910 c-3 -5 1 -10 9 -10 9 0 16 5 16 10 0 6 -4 10 -9 10 -6 0
-13 -4 -16 -10z"/>
<path d="M5500 3855 c0 -8 5 -15 10 -15 6 0 10 7 10 15 0 8 -4 15 -10 15 -5 0
-10 -7 -10 -15z"/>
<path d="M3870 3821 c0 -11 5 -23 10 -26 6 -4 10 5 10 19 0 14 -4 26 -10 26
-5 0 -10 -9 -10 -19z"/>
<path d="M5537 3816 c-6 -15 1 -26 15 -26 11 0 10 27 -1 34 -5 3 -11 0 -14 -8z"/>
<path d="M5215 3720 c3 -5 10 -10 16 -10 5 0 9 5 9 10 0 6 -7 10 -16 10 -8 0
-12 -4 -9 -10z"/>
<path d="M4222 3663 c3 -30 35 -44 49 -22 11 19 -8 49 -32 49 -16 0 -20 -5
-17 -27z"/>
<path d="M5105 3680 c3 -5 8 -10 11 -10 2 0 4 5 4 10 0 6 -5 10 -11 10 -5 0
-7 -4 -4 -10z"/>
<path d="M5397 3656 c-24 -18 -21 -24 8 -18 14 2 25 8 25 13 0 15 -15 17 -33
5z"/>
<path d="M4655 3545 c16 -88 22 -170 12 -182 -7 -9 -5 -13 7 -13 19 0 19 5 6
124 -5 49 -14 94 -21 100 -9 8 -10 1 -4 -29z"/>
<path d="M4012 3521 c2 -7 7 -12 11 -12 12 1 9 15 -3 20 -7 2 -11 -2 -8 -8z"/>
<path d="M4070 3490 c0 -5 5 -10 10 -10 6 0 10 5 10 10 0 6 -4 10 -10 10 -5 0
-10 -4 -10 -10z"/>
<path d="M3961 3434 c0 -11 3 -14 6 -6 3 7 2 16 -1 19 -3 4 -6 -2 -5 -13z"/>
<path d="M4635 3304 c-7 -26 -8 -27 -15 -9 -8 19 -9 19 -9 -1 -1 -33 22 -48
42 -26 13 14 13 21 3 41 l-13 24 -8 -29z"/>
<path d="M4011 3300 c0 -8 9 -33 19 -55 16 -33 18 -35 13 -11 -7 35 -33 88
-32 66z"/>
<path d="M4265 3226 c-3 -9 -7 -23 -10 -31 -3 -11 3 -15 20 -15 29 0 35 30 10
50 -12 10 -16 9 -20 -4z"/>
<path d="M4690 3180 c-8 -5 -13 -10 -10 -11 3 0 13 -2 23 -4 9 -2 17 3 17 11
0 16 -9 18 -30 4z"/>
<path d="M4460 2877 c0 -28 5 -47 11 -47 6 0 9 7 5 15 -3 8 -1 15 4 15 6 0 10
-6 10 -14 0 -20 13 -27 29 -17 11 7 9 13 -6 28 -11 11 -27 30 -36 43 -17 24
-17 24 -17 -23z"/>
<path d="M4507 2747 c-4 -10 -7 -31 -6 -45 l0 -27 10 25 c5 13 8 33 7 45 -3
19 -4 19 -11 2z"/>
<path d="M4045 2740 c3 -5 8 -10 11 -10 2 0 4 5 4 10 0 6 -5 10 -11 10 -5 0
-7 -4 -4 -10z"/>
<path d="M4772 1920 c0 -14 2 -19 5 -12 2 6 2 18 0 25 -3 6 -5 1 -5 -13z"/>
<path d="M4983 1905 c0 -22 2 -30 4 -17 2 12 2 30 0 40 -3 9 -5 -1 -4 -23z"/>
<path d="M4802 1895 c0 -16 2 -22 5 -12 2 9 2 23 0 30 -3 6 -5 -1 -5 -18z"/>
<path d="M4852 1900 c0 -14 2 -19 5 -12 2 6 2 18 0 25 -3 6 -5 1 -5 -13z"/>
<path d="M5413 1795 c0 -27 2 -38 4 -22 2 15 2 37 0 50 -2 12 -4 0 -4 -28z"/>
<path d="M4303 1775 c0 -27 2 -38 4 -22 2 15 2 37 0 50 -2 12 -4 0 -4 -28z"/>
<path d="M5344 1779 c1 -21 4 -39 9 -39 10 0 9 68 -1 74 -4 3 -8 -13 -8 -35z"/>
<path d="M4338 1793 c-4 -13 -2 -23 4 -23 6 0 8 -10 5 -21 -4 -15 -3 -19 4
-12 7 7 7 23 1 44 -7 31 -9 32 -14 12z"/>
<path d="M4416 1780 c11 -43 24 -73 30 -67 3 3 -4 25 -15 49 -11 23 -18 32
-15 18z"/>
<path d="M4483 1750 c0 -25 2 -35 4 -22 2 12 2 32 0 45 -2 12 -4 2 -4 -23z"/>
<path d="M4516 1765 c-4 -14 -2 -34 4 -45 13 -25 25 -26 15 -2 -4 9 -7 29 -6
45 2 34 -5 35 -13 2z"/>
<path d="M4570 1747 c0 -26 4 -47 10 -47 10 0 6 77 -4 87 -3 4 -6 -15 -6 -40z"/>
<path d="M5198 1751 c9 -22 19 -38 20 -36 7 6 -19 75 -28 75 -5 0 -1 -18 8
-39z"/>
<path d="M5250 1781 c0 -5 11 -16 25 -25 14 -9 25 -12 25 -7 0 5 -11 16 -25
25 -14 9 -25 12 -25 7z"/>
<path d="M4618 1763 c-3 -13 -2 -25 3 -28 4 -3 5 -13 2 -23 -4 -12 -3 -14 5
-7 7 6 8 23 3 45 -6 31 -8 32 -13 13z"/>
<path d="M4668 1735 c-2 -25 0 -45 4 -45 5 0 8 20 8 45 0 25 -2 45 -4 45 -2 0
-6 -20 -8 -45z"/>
<path d="M4773 1730 c0 -30 2 -43 4 -27 2 15 2 39 0 55 -2 15 -4 2 -4 -28z"/>
<path d="M5004 1735 c0 -25 3 -45 8 -45 4 0 8 20 8 45 0 59 -15 59 -16 0z"/>
<path d="M5075 1739 c0 -35 1 -38 12 -23 7 10 13 23 13 30 0 6 -6 16 -13 22
-10 8 -12 2 -12 -29z"/>
<path d="M4806 1745 c-6 -25 10 -72 21 -61 3 3 1 12 -6 20 -7 8 -9 25 -5 40 3
14 4 26 1 26 -3 0 -8 -11 -11 -25z"/>
<path d="M4908 1731 c9 -22 19 -38 20 -36 6 6 -21 75 -29 75 -4 0 0 -18 9 -39z"/>
<path d="M4021 1734 c0 -11 3 -14 6 -6 3 7 2 16 -1 19 -3 4 -6 -2 -5 -13z"/>
<path d="M4673 1604 c0 -23 1 -24 9 -10 7 12 7 21 0 28 -6 6 -9 0 -9 -18z"/>
<path d="M5180 8936 c0 -2 7 -6 15 -10 8 -3 15 -1 15 4 0 6 -7 10 -15 10 -8 0
-15 -2 -15 -4z"/>
<path d="M6042 1168 c-7 -7 -12 -25 -12 -42 0 -37 15 -23 23 22 7 36 6 37 -11
20z"/>
<path d="M6018 1057 c-3 -19 -2 -25 4 -19 6 6 8 18 6 28 -3 14 -5 12 -10 -9z"/>
<path d="M5947 903 c-4 -3 -7 -11 -7 -17 0 -6 5 -5 12 2 6 6 9 14 7 17 -3 3
-9 2 -12 -2z"/>
</g>
</svg>
